<?xml version="1.0" encoding="UTF-8" standalone="no"?>
<!-- Created with Inkscape (http://www.inkscape.org/) -->

<svg

   width="512"
   height="512"
   viewBox="0 0 512 512"

   version="1.1"
   id="svg1"
   inkscape:version="1.4.2 (f4327f4, 2025-05-13)"
   sodipodi:docname="logo.svg"
   xmlns:inkscape="http://www.inkscape.org/namespaces/inkscape"
   xmlns:sodipodi="http://sodipodi.sourceforge.net/DTD/sodipodi-0.dtd"
   xmlns="http://www.w3.org/2000/svg"
   xmlns:svg="http://www.w3.org/2000/svg">
  <sodipodi:namedview
     id="namedview1"
     pagecolor="#505050"
     bordercolor="#eeeeee"
     borderopacity="1"
     inkscape:showpageshadow="0"
     inkscape:pageopacity="0"
     inkscape:pagecheckerboard="0"
     inkscape:deskcolor="#505050"
     inkscape:document-units="px"

     inkscape:zoom="2.3691406"
     inkscape:cx="256"
     inkscape:cy="255.78895"

     inkscape:window-width="2560"
     inkscape:window-height="1494"
     inkscape:window-x="-11"
     inkscape:window-y="-11"
     inkscape:window-maximized="1"
     inkscape:current-layer="layer1" />
  <defs
     id="defs1" />
  <g
     inkscape:label="Layer 1"
     inkscape:groupmode="layer"
     id="layer1">
    <path
       style="fill:#ff0000"

       id="path2"
       d="m 50.994121,112.55761 c 2.817888,2.54045 5.379568,5.39776 8.453665,7.62133 9.020089,6.52445 15.060463,8.81533 25.944216,11.59864 2.922009,0.74725 5.946407,1.10212 8.957248,1.27921 9.16236,0.53889 10.64939,0.10489 18.3474,-0.83175 10.92115,-3.37939 15.75225,-3.71885 24.19701,-9.01769 3.10779,-1.95005 6.00437,-4.21812 8.99342,-6.3457 0.28036,-0.19956 1.09407,-0.83496 0.81394,-0.63509 -1.16622,0.83208 -2.31519,1.68808 -3.47278,2.53213 67.33171,-43.527173 5.77499,-138.748582 -61.556712,-95.221413 v 0 c -1.67942,1.181381 -3.376711,2.337758 -5.038259,3.544144 -0.62631,0.454739 -2.492887,1.825915 -1.823275,1.437751 1.94124,-1.125306 3.713835,-2.525473 5.651505,-3.656916 4.52547,-2.642508 12.208985,-3.850579 16.018946,-4.857445 3.383996,-0.18751 3.982725,-0.273178 8.846765,0.198842 1.50097,0.145658 3.0066,0.388454 4.44533,0.840305 8.16628,2.564718 11.94773,3.971542 18.66641,9.154065 2.34171,1.806299 4.30259,4.058687 6.45389,6.08803 C 80.9607,-23.039299 -2.9380173,53.232262 50.994121,112.55761 Z" />
    <path
       style="fill:#ff0000"
       id="path3"
       d="m 323.66683,121.42159 c 2.77186,2.98743 3.913,4.29762 8.0632,7.64599 8.35375,6.73978 18.81495,12.07971 29.39156,14.08175 5.46934,1.03529 11.1029,0.81708 16.65435,1.22562 4.90403,-0.83266 9.9008,-1.2353 14.71208,-2.498 9.34477,-2.45251 14.65774,-6.07875 22.74668,-11.3286 2.60405,-1.69006 8.42139,-6.95252 9.7974,-8.39118 2.43248,-2.54323 4.56145,-5.36033 6.84217,-8.0405 1.91671,-3.11879 4.0758,-6.10102 5.75013,-9.35636 6.08058,-11.822316 9.05245,-26.464178 6.71389,-39.665493 -1.18078,-6.665535 -4.21234,-12.866643 -6.31852,-19.299964 C 401.85322,-25.760391 300.65882,25.386845 336.82538,96.942089 v 0 c -1.60062,-5.433086 -3.96656,-10.697235 -4.80185,-16.29926 -1.4127,-9.474431 0.62169,-20.476135 5.3534,-28.861675 1.14542,-2.029921 2.58651,-3.878175 3.87977,-5.817263 4.87725,-5.299216 2.94492,-3.628079 7.48273,-7.315972 0.067,-0.05442 -0.25343,0.229402 -0.17748,0.188443 2.52515,-1.361847 4.91667,-2.987492 7.53636,-4.157187 6.50903,-2.906278 9.77063,-2.650464 17.22871,-3.602733 4.13799,0.464043 8.35298,0.471999 12.41397,1.392129 6.73867,1.526834 13.17853,4.805205 18.38221,9.331748 1.38429,1.204155 2.60874,2.580642 3.92367,3.860178 0.16761,0.163099 -0.32088,-0.340313 -0.48132,-0.51047 -53.93214,-59.325352 -137.83085,16.946209 -83.89872,76.271563 z" />
    <path
       style="fill:#ff0000"
       id="path4"
       d="m -45.995497,157.92492 c -0.186156,1.4826 -0.396011,2.96243 -0.558467,4.44782 -0.313405,2.86555 -0.573737,5.73667 -0.869023,8.60415 -0.247925,2.40757 -1.589841,15.07732 -1.813022,17.32281 -0.897368,9.02872 -0.869074,9.1903 -1.595409,18.17834 -0.89299,12.09725 -1.270237,24.22838 -1.460879,36.35508 -0.05116,3.25429 -0.03308,6.50969 -0.111415,9.76344 -0.06826,2.83528 -0.218876,5.66798 -0.328315,8.50196 -1.070723,21.17093 -1.655821,42.35914 -2.002551,63.55281 -0.192374,13.85764 -0.24495,27.71671 -0.270108,41.5755 -0.0068,3.74254 0.03107,7.48536 -0.0132,11.22764 -0.04134,3.49466 -0.162418,6.98792 -0.243626,10.48187 -0.418012,14.02133 -0.899198,28.0406 -1.261893,42.06356 -0.258622,9.99913 0.0052,5.31028 -0.505059,12.54765 -1.144303,10.46563 -1.627637,20.97809 -1.948172,31.49584 -0.219718,10.15165 -0.731372,21.00069 2.974357,30.67455 2.580437,6.73627 5.219858,13.82846 10.103568,19.13745 6.931793,7.53542 16.346419,12.33385 24.519628,18.50078 4.533988,1.33895 9.024563,2.83481 13.6019649,4.01686 0.9827124,0.25377 12.2126219,2.18932 13.2860458,2.35514 9.0313873,1.39517 18.1144403,2.34323 27.1878323,3.41092 3.284466,0.33802 6.565114,0.71546 9.853398,1.01406 6.97832,0.63367 16.34425,1.31313 23.274075,1.57776 13.861038,0.52933 27.739947,0.36871 41.606537,0.29294 10.96658,-0.086 21.93246,-0.23655 32.8986,-0.36343 2.88585,-0.0334 5.77156,-0.10098 8.65761,-0.0959 6.0882,0.0108 12.17442,0.22076 18.26142,0.34202 18.43831,0.49553 36.88608,0.25402 55.32675,0.053 4.10626,-0.0448 8.21324,-0.0495 12.31869,-0.14249 4.74036,-0.10736 9.47823,-0.30567 14.21734,-0.4585 4.58643,-0.17874 9.17272,-0.36117 13.7593,-0.53622 10.55032,-0.40266 16.35298,-0.62594 26.89168,-0.93339 8.56482,-0.3354 17.13695,-0.36728 25.70414,-0.60174 4.60937,-0.12614 9.21699,-0.31012 13.82548,-0.46518 20.49952,-0.90433 40.96551,-2.40415 61.45321,-3.51547 13.24888,-0.71865 18.63409,-0.89766 31.8071,-1.43933 24.37347,-0.64425 48.71406,-2.11307 73.06507,-3.29201 9.19653,0.0165 18.62983,1.36604 27.73744,-0.52843 5.18331,-1.07817 10.17276,-2.93796 15.25913,-4.40694 5.75215,-3.66954 12.20402,-6.42323 17.25644,-11.00861 11.4568,-10.39774 17.21807,-22.44015 19.79654,-37.61946 1.80669,-10.63587 -0.10146,-20.15523 -3.02844,-30.11911 -0.75819,-2.58098 -1.89154,-5.03659 -2.83731,-7.55489 -4.07855,-9.78946 -7.04237,-19.97894 -10.09292,-30.12023 -0.92038,-3.73645 -2.177,-8.72351 -2.94547,-12.3903 -0.43367,-2.06922 -0.78087,-4.15565 -1.15923,-6.2357 -0.47461,-2.60929 -0.99652,-5.21094 -1.39967,-7.83222 -0.37285,-2.42419 -0.61933,-4.86613 -0.92758,-7.29938 -0.41362,-3.26496 -0.82536,-6.53015 -1.23804,-9.79522 -0.87703,-8.49121 -1.16247,-10.6924 -1.80925,-19.19921 -0.23498,-3.09062 -0.38893,-6.187 -0.61769,-9.27809 -0.72117,-9.74434 -1.56353,-19.47605 -2.23598,-29.22432 -1.04968,-16.25538 -1.29103,-32.54651 -1.44326,-48.83026 0.59146,-17.08416 1.25006,-34.16439 1.65703,-51.25452 0.29498,-13.46002 0.38972,-26.92312 0.42797,-40.38595 0.0527,-45.66773 2.78202,-13.44112 -113.38084,-7.52446 -1.44024,0.0734 -0.002,2.88422 -0.002,4.32633 -9.7e-4,2.24692 -0.002,4.49384 -0.002,6.74076 0.26124,14.50036 -0.6087,28.97762 -1.67557,43.42947 -0.32212,4.36348 -0.58631,8.73208 -0.99546,13.08827 -0.3556,3.78601 -0.86558,7.55594 -1.29837,11.33391 -1.5653,12.3809 -3.41591,24.72594 -5.49292,37.03111 -0.66391,3.93329 -1.31787,7.86908 -2.0741,11.78566 -1.32718,6.87357 -3.21228,14.64538 -4.7897,21.41872 -4.27627,17.12503 -9.06273,34.13171 -12.8243,51.38309 -0.63825,2.92716 -1.20275,5.86992 -1.80412,8.80488 -3.01456,12.77002 -4.71865,25.78433 -6.36934,38.78437 -0.89448,7.94546 -0.48334,3.94896 -1.2311,11.98972 -7.2698,79.84562 105.64896,90.12667 112.91876,10.28106 v 0 c 0.45837,-5.214 0.19275,-2.51157 0.80992,-8.106 1.35762,-10.90906 -0.3368,2.50264 1.40729,-10.52116 0.15775,-1.178 0.265,-2.36257 0.43204,-3.5393 0.78101,-5.50193 1.96551,-10.93595 3.15758,-16.3599 0.3963,-1.98617 0.76189,-3.97871 1.18891,-5.95851 1.32808,-6.15744 2.46807,-10.56661 4.01534,-16.81082 2.84201,-11.46932 5.92657,-22.87309 8.75669,-34.34567 2.48413,-10.76044 3.93107,-16.56752 6.01042,-27.41735 0.84772,-4.42333 1.5843,-8.8674 2.3308,-13.30894 2.37626,-14.1384 4.48462,-28.32374 6.246,-42.5522 0.5567,-5.1006 1.19284,-10.19316 1.6701,-15.3018 0.42733,-4.57416 0.71167,-9.1606 1.04329,-13.74269 0.36089,-4.98652 0.74715,-9.97166 1.03421,-14.96297 0.69633,-12.10739 1.02781,-24.23692 0.91945,-36.36421 7.6e-4,-2.23836 0.001,-4.47673 0.002,-6.7151 6.1e-4,-1.40987 1.41045,-4.15821 0.002,-4.22963 -116.71229,-5.91943 -113.31155,-38.29228 -113.39024,7.04343 -0.0355,12.67324 -0.12168,25.34675 -0.39655,38.01741 -0.20434,8.65358 -0.44194,17.30438 -0.75671,25.95478 -0.0839,2.30459 -0.63913,16.40029 -0.70136,18.55194 -0.1013,3.50211 -0.15051,7.00552 -0.22577,10.50828 0.17713,18.5408 0.48726,37.08891 1.70938,55.59567 0.23179,3.33231 0.4479,6.66574 0.69537,9.99692 0.4717,6.34936 1.05609,12.69 1.52774,19.03936 0.28124,3.78615 0.48334,7.57802 0.77801,11.36315 0.82135,10.55043 1.16558,13.09068 2.28809,23.70262 0.84104,6.63619 2.03509,16.40238 3.04842,22.87043 0.48628,3.10392 1.08536,6.18929 1.66834,9.27651 1.89663,10.04359 4.07824,20.02482 6.87169,29.86246 4.05591,13.45563 8.14421,26.92244 13.53975,39.91682 -1.79938,-7.11093 -2.72915,-14.33193 -1.12907,-21.72638 2.72052,-12.57235 7.681,-22.27654 17.53651,-30.69779 4.327,-3.6973 9.77935,-5.82547 14.66903,-8.73821 3.81371,-0.94936 7.57502,-2.14175 11.44112,-2.84809 1.7059,-0.31167 3.46515,-0.1533 5.19885,-0.19204 0.16424,-0.004 -0.32096,0.0918 -0.48517,0.0867 -1.90724,-0.0598 -3.81072,-0.21178 -5.71764,-0.28123 -7.9091,-0.28804 -7.57586,-0.18679 -16.05952,-0.1096 -24.08004,1.16669 -48.14959,2.62218 -72.25203,3.25556 -14.35536,0.59366 -19.37442,0.75574 -33.8517,1.54214 -19.53412,1.06109 -39.04796,2.48077 -58.59132,3.3819 -4.10089,0.14121 -8.20089,0.31176 -12.30269,0.42362 -51.04264,1.39204 25.41655,-0.89961 -27.01086,0.63615 -10.77242,0.31556 -16.93768,0.55092 -27.67638,0.96131 -4.36545,0.16683 -8.73058,0.34151 -13.09588,0.51226 -3.92306,0.13458 -7.84483,0.31447 -11.76919,0.40373 -1.47216,0.0335 -23.94918,0.26481 -25.03599,0.274 -7.2273,0.0611 -18.88668,0.1464 -26.15574,0.0738 -4.29791,-0.0429 -8.59472,-0.16236 -12.89209,-0.24354 -5.33421,-0.10548 -16.21021,-0.34804 -21.76692,-0.3574 -2.92162,-0.005 -5.8429,0.0633 -8.76433,0.0971 -10.72411,0.12408 -21.44797,0.27124 -32.17249,0.35703 -8.791487,0.0507 -15.705263,0.12311 -24.476846,0.047 -3.40901,-0.0296 -6.818915,-0.0509 -10.226028,-0.16839 -8.737572,-0.30127 -17.460268,-1.0501 -26.149597,-1.98889 -2.912579,-0.34244 -5.824189,-0.6932 -8.737735,-1.0273 -5.157442,-0.59142 -7.548692,-0.76649 -12.561091,-1.53376 -1.972927,-0.30201 -3.933916,-0.67747 -5.902025,-1.00942 -0.895588,-0.15106 -3.508444,-0.83131 -2.689015,-0.43961 2.358197,1.12726 4.91341,1.78484 7.370115,2.67726 6.952419,5.64184 14.997306,10.15592 20.857256,16.92551 4.052392,4.68145 6.118941,10.83377 8.215183,16.65988 1.269334,3.52788 1.287876,7.38941 1.775318,11.10687 0.08461,0.64526 -0.06198,2.60211 -0.0631,1.95133 -0.0013,-0.73354 0.144384,-7.08067 0.151435,-7.39914 0.12439,-4.23678 0.228091,-8.47759 0.498673,-12.7084 0.211716,-3.31038 0.431146,-5.24248 0.728697,-8.65012 0.191429,-2.1923 0.372069,-4.38552 0.558103,-6.57828 0.161755,-2.84338 0.368006,-5.68458 0.485267,-8.53014 0.108391,-2.63032 0.123661,-5.26365 0.191599,-7.89532 0.366981,-14.21566 0.861997,-28.42732 1.27612,-42.64159 0.09038,-4.28334 0.22028,-8.56603 0.271134,-12.85001 0.04384,-3.69304 0.0063,-7.3866 0.01293,-11.0799 0.02396,-13.3375 0.07283,-26.67529 0.255453,-40.01171 0.330374,-20.43052 0.909331,-40.85476 1.942167,-61.2632 0.132204,-3.78933 0.303888,-7.57748 0.396611,-11.36799 0.0714,-2.91877 0.05195,-5.83909 0.09572,-8.7584 0.147841,-9.86036 0.421345,-19.7261 1.120821,-29.56435 0.593193,-7.46675 0.585944,-7.82673 1.345959,-15.47447 0.22726,-2.28684 1.659876,-15.80571 1.876853,-17.95151 0.19014,-1.88038 0.331865,-3.76563 0.53754,-5.64437 0.188008,-1.71738 0.428921,-3.42855 0.643381,-5.14282 C 76.073123,91.714868 -36.517674,78.311202 -45.995497,157.92492 Z" />
    <path
       style="fill:#ff0000"
       id="path5"
       d="m 533.41355,200.86213 c -1.45045,2.48674 -7.29676,12.19909 -1.12083,2.5194 0.86347,-1.35333 1.643,-2.75884 2.49968,-4.11648 0.1648,-0.26117 -0.28163,0.5497 -0.42244,0.82455 45.38151,-66.09607 -48.09246,-130.275225 -93.47397,-64.17915 v 0 c -1.17631,1.783 -2.36901,3.55528 -3.52892,5.34899 -0.0829,0.12826 -0.32441,0.49842 -0.19742,0.41353 0.21022,-0.14053 0.3132,-0.39707 0.46979,-0.59561 -1.88041,3.0257 -3.76083,6.05139 -5.64125,9.07709 -35.85575,71.7115 65.55962,122.41918 101.41536,50.70768 z" />
    <path
       style="fill:#ff0000"
       id="path6"
       d="m 408.45465,216.24541 c 0,8.32647 0,16.65295 0,24.97942 -0.74057,10.27298 -1.53406,20.53996 -2.01583,30.82888 -0.0684,2.17057 -0.10475,4.34238 -0.20527,6.5117 -0.15473,3.33917 -0.47319,6.66876 -0.69397,10.0042 -0.14801,2.23618 -0.25655,4.47505 -0.42613,6.7097 -0.31127,4.10192 -0.74227,8.19388 -1.1079,12.29131 -0.63916,4.14649 -0.8972,8.34084 -1.48365,12.49335 -0.21432,1.51759 -0.58378,3.00944 -0.84364,4.5199 -1.29237,7.51208 -1.24671,8.48537 -2.81097,15.61273 -0.56114,2.55678 -1.21749,5.09173 -1.82624,7.6376 -1.58533,6.48713 -3.11166,12.88762 -4.83717,19.33897 -1.49886,5.60392 -3.1565,11.16443 -4.67054,16.76427 -7.80391,28.86366 2.43681,-8.6106 -3.65495,13.63933 -1.76936,6.96808 -3.60692,13.91854 -5.31227,20.90254 -4.34665,17.80111 0.95751,-3.49163 -2.29338,9.512 -1.65074,7.18388 -3.03923,14.42364 -4.68204,21.60846 -1.19197,5.21312 -0.5619,3.05016 -1.5358,6.16463 -0.28831,1.00335 -0.53938,2.01816 -0.86493,3.01005 -0.0443,0.13494 -0.0295,-0.29146 0.0167,-0.42574 0.43503,-1.2633 0.76813,-2.58218 1.42062,-3.74814 5.82373,-10.40668 8.38965,-13.56042 19.51775,-20.984 3.00527,-2.00482 6.65758,-2.80717 9.98637,-4.21075 2.34942,-0.47803 4.85186,-0.47275 7.04824,-1.43409 0.99343,-0.43482 -2.16242,-0.16867 -3.24507,-0.23053 -2.5287,-0.1445 -5.05876,-0.26441 -7.58855,-0.38851 -9.58367,-0.47013 -19.16879,-0.8559 -28.75747,-1.20629 -2.86112,-0.0894 -5.72364,-0.14154 -8.58336,-0.26809 -4.45638,-0.19721 -8.90367,-0.56358 -13.35576,-0.84137 -3.7369,-0.23317 -9.97657,-0.55682 -13.76693,-1.02413 -1.53907,-0.18975 -3.05543,-0.53228 -4.58314,-0.79842 -2.39773,-0.39964 -4.80308,-0.75597 -7.19319,-1.19893 -1.77952,-0.3298 -3.5387,-0.76174 -5.31294,-1.11884 -2.54031,-0.5113 -5.08256,-1.0137 -7.63036,-1.4863 -7.38941,-1.37069 -14.79439,-2.44528 -22.24732,-3.39479 -11.21549,-1.44017 -22.52468,-1.62268 -33.81416,-1.70219 -8.01447,-0.11773 -16.03386,0.12263 -24.04781,-6.4e-4 -2.55455,-0.0393 -5.10694,-0.16865 -7.65995,-0.26559 -6.74457,-0.25609 -13.48794,-0.54287 -20.23214,-0.80836 -3.82337,-0.12798 -7.64531,-0.31022 -11.47011,-0.38393 -8.23594,-0.15871 -16.2438,-0.079 -24.47292,0.0336 -1.3979,0.0191 -18.40612,0.32239 -20.30534,0.3885 -3.40424,0.1185 -6.8047,0.32818 -10.20704,0.49227 -14.57086,0.95757 -29.1545,1.65794 -43.75124,2.0464 -4.475132,0.0213 -8.946768,0.32627 -13.417861,0.0428 -0.837965,-0.0531 -3.345108,-0.28726 -2.512702,-0.17722 12.130216,1.60357 3.107798,-0.65569 18.339784,4.81897 13.342119,9.53183 7.451738,4.09948 15.539439,13.14186 0.25305,0.28292 0.87716,1.17943 0.80325,0.80713 -0.22521,-1.13436 -0.86616,-2.1448 -1.28299,-3.22358 -2.04349,-5.2887 -1.48899,-3.8085 -3.14576,-8.89797 -0.30905,-1.17516 -0.6575,-2.34066 -0.92714,-3.52548 -0.21398,-0.94022 -0.3278,-1.90081 -0.52271,-2.84517 -1.06237,-5.1472 -2.252967,-10.24428 -3.041625,-15.44312 -0.01769,-0.35879 -0.0107,-0.71965 -0.05306,-1.07637 -0.359395,-3.02645 -0.84386,-6.03728 -1.196461,-9.06452 -0.693687,-5.95563 0.270324,-0.31432 -1.264893,-9.8899 -0.384519,-2.39835 -0.858775,-4.78146 -1.288162,-7.17219 -2.320523,-10.84498 -0.792875,-4.03058 -3.39042,-14.86208 -0.446348,-1.86123 -0.858337,-3.73075 -1.321888,-5.58777 -0.785272,-3.14585 -2.310102,-8.72666 -3.116686,-12.15624 -0.282695,-1.20202 -0.513604,-2.41563 -0.770406,-3.62345 -0.478623,-1.99166 -0.955773,-3.98367 -1.435868,-5.97498 -0.63454,-2.6319 -1.091024,-4.35884 -1.604572,-6.88822 -0.321178,-0.87668 -0.259794,-1.81364 -0.429029,-2.71365 -0.363405,-1.93262 -0.768845,-3.8571 -1.153267,-5.78565 -0.216993,-0.97478 -0.450443,-1.94605 -0.65098,-2.92434 -0.04542,-0.2216 -0.09602,-1.03692 -0.12639,-1.22493 -0.248702,-1.53975 -0.542327,-3.07204 -0.789181,-4.61209 -0.121929,-0.76069 -0.191751,-1.5292 -0.317042,-2.28934 -0.341026,-2.06899 -0.721158,-4.13135 -1.081737,-6.19702 -0.229967,-1.41644 -0.477333,-2.83016 -0.6899,-4.24931 -0.879601,-5.87243 -0.257964,-2.10863 -0.943685,-7.88095 -0.266337,-2.24199 -0.574263,-4.47884 -0.861395,-6.71826 -0.303819,-2.43186 -0.624126,-4.86171 -0.911458,-7.29557 -0.303062,-2.56711 -0.573122,-5.138 -0.859684,-7.707 -0.250905,-2.55293 -0.518246,-5.1043 -0.752714,-7.65879 -0.218127,-2.37647 -0.378088,-4.75811 -0.60504,-7.13374 -0.213837,-2.23835 -1.316789,-12.44349 -1.596609,-15.20992 -0.575786,-5.69251 -0.537372,-5.53204 -0.979168,-10.96601 -0.525902,-5.81063 -1.593635,-11.54583 -2.433064,-17.31268 -0.118789,-0.81608 -0.178368,-1.64063 -0.315225,-2.45388 -1.370668,-7.50152 -0.858098,-4.50804 -1.605324,-8.9686 -0.635628,-3.74394 -0.909967,-7.53022 -1.050118,-11.32048 -0.05019,-2.5246 -0.02815,-1.16605 -0.06119,-4.07574 -1.047584,-80.16904 -114.423732,-78.68753 -113.376147,1.48151 v 0 c 0.06963,4.92018 0.01858,2.44727 0.154199,7.41869 0.393744,8.73633 1.13993,17.45861 2.651622,26.08064 0.293628,1.64165 0.547694,3.29087 0.880884,4.92496 0.03245,0.15916 -0.0012,-0.6472 0.02407,-0.48673 0.255658,1.62539 0.43231,3.26232 0.668619,4.89065 0.442744,3.05079 0.951794,6.09345 1.458909,9.13404 0.572505,6.87681 0.5201,6.61308 1.220363,13.53528 0.43826,4.33226 0.97222,8.65472 1.384706,12.98952 0.273635,2.8756 0.475991,5.75764 0.74337,8.63384 0.283207,3.04644 0.605568,6.08911 0.908352,9.13367 0.343104,3.04583 0.668904,6.09366 1.029311,9.13749 0.309869,2.61701 0.65432,5.22982 0.98148,7.84473 0.195525,1.47365 0.40892,2.94504 0.586575,4.42095 0.795214,6.60645 1.471238,13.23061 2.733178,19.77211 1.323908,7.03138 2.087828,14.16506 3.731316,21.1373 -0.05179,-2.17073 -0.02451,-0.10214 0.785201,4.37836 0.843633,4.66821 1.935666,9.2798 3.060013,13.88637 0.293713,1.20338 0.592397,2.40554 0.888596,3.60831 0.519996,2.32335 1.010639,4.65346 1.559987,6.97004 2.430706,10.25022 0.60962,2.05841 2.732107,10.58281 1.234792,4.9592 2.392114,9.94135 3.547136,14.91951 0.15988,0.81339 0.852562,4.20349 0.993948,5.33249 0.244163,1.9497 0.40299,3.90928 0.632922,5.8607 0.522615,4.43541 1.303769,8.83497 1.706622,13.28589 1.201293,7.35773 2.627868,14.65776 4.2722124,21.93028 0.7097105,3.13887 1.361947,6.29237 2.1731696,9.40655 0.7784092,2.98821 1.7292049,5.92884 2.5938074,8.89326 2.6181143,7.61324 3.0779695,9.31971 6.0917435,16.66597 1.1545829,2.81436 2.2924286,5.63983 3.6114642,8.38097 3.9137665,8.13336 8.3296189,16.52397 14.7488419,23.03737 4.678936,4.74759 10.332689,8.42399 15.499033,12.63598 5.542882,2.35751 10.881597,5.26898 16.628645,7.07255 4.420983,1.38742 9.097344,1.78845 13.684799,2.44058 1.918835,0.27277 3.868314,0.25544 5.805006,0.32998 6.694428,0.25765 13.381228,0.15584 20.075948,-0.0263 15.495532,-0.42074 30.979812,-1.12708 46.447902,-2.15108 2.26726,-0.12358 4.53252,-0.2915 6.80176,-0.37075 1.65324,-0.0577 17.73568,-0.34988 19.15566,-0.3706 5.11305,-0.0746 14.31663,-0.18758 19.49905,-0.0905 3.59914,0.0675 7.19555,0.23954 10.79332,0.35931 10.81373,0.42564 21.63447,0.99532 32.45643,1.16165 5.66726,0.0871 11.33586,-0.0133 17.00379,-0.0107 2.06008,9.4e-4 4.12016,0.006 6.18024,0.009 6.83255,0.0429 13.68719,0.008 20.4828,0.82579 4.9237,0.59966 9.80856,1.28692 14.68867,2.18774 5.36601,0.9905 10.69276,2.18712 16.06082,3.16646 2.98204,0.54404 5.98178,0.98616 8.97266,1.47923 3.89263,0.54359 7.77323,1.18162 11.67788,1.63075 4.78779,0.55071 11.38148,0.90539 16.33431,1.21427 3.99959,0.24944 13.15604,0.83978 16.9167,1.00833 2.65923,0.11919 5.32124,0.16518 7.98186,0.24777 9.0482,0.32902 18.09274,0.69399 27.13625,1.13557 3.07103,0.14995 16.06474,0.87457 18.71772,0.74498 5.70309,-0.27858 11.36846,-1.0815 17.05269,-1.62225 5.55248,-1.9324 11.53892,-2.90496 16.65742,-5.79721 6.97417,-3.94081 13.46177,-8.86515 19.19389,-14.46086 3.96367,-3.86935 6.68949,-8.85587 9.55017,-13.59919 1.70723,-2.83078 2.85692,-5.967 4.09796,-9.03094 1.53676,-3.79402 2.42254,-7.15992 3.51724,-10.99408 0.5803,-2.18237 1.19333,-4.3563 1.74089,-6.54711 0.37906,-1.5166 0.69408,-3.04849 1.03853,-4.57331 1.45707,-6.45018 2.80658,-12.92262 4.15618,-19.3961 2.29494,-9.28634 4.49489,-18.59462 6.93549,-27.84472 0.61677,-2.25974 1.23354,-4.51947 1.85031,-6.77921 0.57225,-2.18014 1.12863,-4.36451 1.71676,-6.54042 1.7054,-6.30952 3.5546,-12.57981 5.23747,-18.89537 1.9416,-7.28649 3.6048,-14.27696 5.39124,-21.60299 0.90288,-3.91804 1.87274,-7.82124 2.70865,-11.7541 1.5613,-7.34569 2.1817,-11.38223 3.33341,-18.48855 0.56912,-3.51155 1.19093,-7.01524 1.69172,-10.53718 0.71927,-5.05839 0.96398,-10.17735 1.76092,-15.22631 1.20176,-13.46944 2.34287,-26.95734 2.76643,-40.47722 0.5117,-11.99445 1.82194,-23.94001 2.13134,-35.94556 0,-8.32647 0,-16.65295 0,-24.97942 0,-80.17589 -113.38583,-80.17589 -113.38583,0 z" />
    <path
       style="fill:#ff0000"
       id="path7"
       d="m 50.228969,462.88131 c 8.103028,4.37328 16.969243,6.72134 26.050538,7.9284 3.901639,0.5186 5.735095,0.57005 9.776567,0.84237 2.967138,-0.0255 5.938125,0.0766 8.901412,-0.0766 4.3444,-0.22469 10.075814,-1.02804 14.580814,-1.50136 5.803,-0.60969 11.61944,-1.02188 17.44029,-1.41165 5.17638,-0.3079 10.35819,-0.5336 15.54235,-0.65745 1.75128,-0.0418 3.50378,-0.0328 5.25448,-0.0942 4.68669,-0.1644 10.92207,-0.52502 15.65911,-0.78308 8.65915,-0.69059 17.30492,-1.54396 25.91009,-2.73923 8.70539,-1.20918 8.35419,-1.3774 16.58812,-2.39057 2.51686,-0.30969 5.04179,-0.54988 7.56269,-0.82482 2.69591,-0.22049 5.38872,-0.4829 8.08773,-0.66148 20.03958,-1.32593 40.15898,-1.31904 60.23171,-1.49411 16.95187,-0.11815 33.90423,-0.13308 50.85642,-0.10486 2.94807,0.0644 5.89822,-0.0491 8.84627,0.0156 3.22221,0.0707 6.43896,0.30104 9.65906,0.4376 6.48869,0.27516 7.5404,0.30909 13.94738,0.55468 6.13962,0.22453 12.28151,0.37169 18.42349,0.51161 80.15528,1.81779 82.72602,-111.53889 2.57074,-113.35668 v 0 c -5.55233,-0.12529 -11.10458,-0.25723 -16.65484,-0.45769 -12.19744,-0.46673 -24.39322,-1.20221 -36.60372,-1.09081 -17.34671,-0.0288 -34.6936,-0.013 -52.03999,0.10907 -26.64447,0.2353 -53.34752,0.30159 -79.89516,2.85024 -3.48498,0.39505 -6.97471,0.7502 -10.45492,1.18516 -10.5579,1.31954 -6.65875,0.973 -15.6639,2.26721 -5.43342,0.78089 -6.71788,0.87573 -12.32618,1.44985 -1.74136,0.17826 -3.48359,0.34796 -5.22538,0.52195 -3.86768,0.2116 -7.73185,0.50211 -11.60305,0.63441 -2.21551,0.0757 -4.43307,0.0729 -6.64917,0.12889 -6.57393,0.16596 -13.14463,0.46196 -19.70826,0.86356 -7.56959,0.52 -15.12484,1.09615 -22.671807,1.88902 -1.874427,0.19692 -3.751095,0.38129 -5.617417,0.64416 -0.145978,0.0206 -0.536754,0.16884 -0.393212,0.20243 0.669245,0.15659 1.369032,0.12404 2.053547,0.18605 -0.221844,0.003 -0.443706,0.005 -0.665533,0.009 -0.101426,0.002 -0.398359,-0.0289 -0.304199,0.009 0.263012,0.10543 0.552696,0.12597 0.826117,0.20033 1.319829,0.35895 2.652421,0.67686 3.953257,1.09949 3.409105,1.1076 4.618067,1.8801 8.049597,3.56388 C 34.137958,324.948 -20.157087,424.48892 50.228969,462.88131 Z" />
    <path
       style="fill:#ff0000"
       id="path8"
       d="m 50.228969,462.88131 c 8.103028,4.37328 16.969243,6.72134 26.050538,7.9284 3.901639,0.5186 5.735095,0.57005 9.776567,0.84237 2.967138,-0.0255 5.938125,0.0766 8.901412,-0.0766 4.3444,-0.22469 10.075814,-1.02804 14.580814,-1.50136 5.803,-0.60969 11.61944,-1.02188 17.44029,-1.41165 5.17638,-0.3079 10.35819,-0.5336 15.54235,-0.65745 1.75128,-0.0418 3.50378,-0.0328 5.25448,-0.0942 4.68669,-0.1644 10.92207,-0.52502 15.65911,-0.78308 8.65915,-0.69059 17.30492,-1.54396 25.91009,-2.73923 8.70539,-1.20918 8.35419,-1.3774 16.58812,-2.39057 2.51686,-0.30969 5.04179,-0.54988 7.56269,-0.82482 2.69591,-0.22049 5.38872,-0.4829 8.08773,-0.66148 20.03958,-1.32593 40.15898,-1.31904 60.23171,-1.49411 16.95187,-0.11815 33.90423,-0.13308 50.85642,-0.10486 2.94807,0.0644 5.89822,-0.0491 8.84627,0.0156 3.22221,0.0707 6.43896,0.30104 9.65906,0.4376 6.48869,0.27516 7.5404,0.30909 13.94738,0.55468 6.13962,0.22453 12.28151,0.37169 18.42349,0.51161 80.15528,1.81779 82.72602,-111.53889 2.57074,-113.35668 v 0 c -5.55233,-0.12529 -11.10458,-0.25723 -16.65484,-0.45769 -12.19744,-0.46673 -24.39322,-1.20221 -36.60372,-1.09081 -17.34671,-0.0288 -34.6936,-0.013 -52.03999,0.10907 -26.64447,0.2353 -53.34752,0.30159 -79.89516,2.85024 -3.48498,0.39505 -6.97471,0.7502 -10.45492,1.18516 -10.5579,1.31954 -6.65875,0.973 -15.6639,2.26721 -5.43342,0.78089 -6.71788,0.87573 -12.32618,1.44985 -1.74136,0.17826 -3.48359,0.34796 -5.22538,0.52195 -3.86768,0.2116 -7.73185,0.50211 -11.60305,0.63441 -2.21551,0.0757 -4.43307,0.0729 -6.64917,0.12889 -6.57393,0.16596 -13.14463,0.46196 -19.70826,0.86356 -7.56959,0.52 -15.12484,1.09615 -22.671807,1.88902 -1.874427,0.19692 -3.751095,0.38129 -5.617417,0.64416 -0.145978,0.0206 -0.536754,0.16884 -0.393212,0.20243 0.669245,0.15659 1.369032,0.12404 2.053547,0.18605 -0.221844,0.003 -0.443706,0.005 -0.665533,0.009 -0.101426,0.002 -0.398359,-0.0289 -0.304199,0.009 0.263012,0.10543 0.552696,0.12597 0.826117,0.20033 1.319829,0.35895 2.652421,0.67686 3.953257,1.09949 3.409105,1.1076 4.618067,1.8801 8.049597,3.56388 C 34.137958,324.948 -20.157087,424.48892 50.228969,462.88131 Z" />

  </g>
</svg>
